<svg width="17" height="18" viewBox="0 0 17 18" fill="none" xmlns="http://www.w3.org/2000/svg">
<path d="M3.2628 0.673706L6.40542 3.81632H10.5956V8.00648L13.7382 11.1491V0.673706H3.2628ZM14.262 12.1966H12.1669C11.8778 12.1966 11.6431 12.4313 11.6431 12.7204V16.9106C11.6431 17.1997 11.8778 17.4343 12.1669 17.4343H14.262C15.7065 17.4343 16.8808 16.26 16.8808 14.8155C16.8808 13.3709 15.7065 12.1966 14.262 12.1966ZM14.262 16.3868H12.6907V13.2442H14.262C15.1283 13.2442 15.8333 13.9492 15.8333 14.8155C15.8333 15.6818 15.1283 16.3868 14.262 16.3868ZM10.2719 12.2364C10.0781 12.1558 9.85183 12.1998 9.70098 12.3496L7.97673 14.0749L6.25248 12.3506C6.10164 12.2008 5.87851 12.1568 5.68157 12.2375C5.48568 12.3171 5.35788 12.5088 5.35788 12.7204V16.9106C5.35788 17.1997 5.59253 17.4343 5.88165 17.4343C6.17077 17.4343 6.40542 17.1997 6.40542 16.9106V13.9848L7.6059 15.1853C7.81017 15.3895 8.14224 15.3895 8.34651 15.1853L9.54804 13.9848V16.9106C9.54804 17.1997 9.78269 17.4343 10.0718 17.4343C10.3609 17.4343 10.5956 17.1997 10.5956 16.9106V12.7204C10.5956 12.5088 10.4678 12.3171 10.2719 12.2364ZM4.27682 16.7262L2.70551 12.536C2.55257 12.1265 1.87796 12.1265 1.72397 12.536L0.152661 16.7262C0.0510493 16.9975 0.188277 17.2992 0.458542 17.4008C0.728807 17.5056 1.03155 17.3652 1.13316 17.0949L1.40028 16.3868H3.0313L3.29633 17.0949C3.37489 17.3044 3.57497 17.4343 3.78657 17.4343C3.84838 17.4343 3.91018 17.4239 3.97094 17.4008C4.24121 17.2992 4.37843 16.9975 4.27682 16.7262ZM1.79311 15.3393L2.21527 14.2121L2.63742 15.3393H1.79311Z" fill="white"/>
</svg>
