<svg width="17" height="17" viewBox="0 0 17 17" fill="none" xmlns="http://www.w3.org/2000/svg">
<g clip-path="url(#clip0_343_44156)">
<path d="M6.28617 7.33274V3.14258L3.14355 4.78198V10.4754H8.97311L10.4763 7.33274H6.28617Z" fill="white"/>
<path d="M3.14366 0L6.28628 3.14262H10.4764V7.33277L13.6191 10.4754V0H3.14366ZM14.1428 11.5229H12.0477C11.7586 11.5229 11.524 11.7576 11.524 12.0467V16.2369C11.524 16.526 11.7586 16.7606 12.0477 16.7606H14.1428C15.5874 16.7606 16.7617 15.5863 16.7617 14.1418C16.7617 12.6972 15.5874 11.5229 14.1428 11.5229ZM14.1428 15.7131H12.5715V12.5705H14.1428C15.0091 12.5705 15.7141 13.2755 15.7141 14.1418C15.7141 15.0081 15.0091 15.7131 14.1428 15.7131ZM10.1527 11.5627C9.95895 11.4821 9.73269 11.5261 9.58184 11.6759L7.85759 13.4012L6.13334 11.6769C5.9825 11.5271 5.75937 11.4831 5.56243 11.5638C5.36654 11.6434 5.23874 11.8351 5.23874 12.0467V16.2369C5.23874 16.526 5.47339 16.7606 5.76251 16.7606C6.05163 16.7606 6.28628 16.526 6.28628 16.2369V13.3111L7.48676 14.5116C7.69103 14.7158 8.0231 14.7158 8.22737 14.5116L9.4289 13.3111V16.2369C9.4289 16.526 9.66355 16.7606 9.95267 16.7606C10.2418 16.7606 10.4764 16.526 10.4764 16.2369V12.0467C10.4764 11.8351 10.3486 11.6434 10.1527 11.5627ZM4.15768 16.0525L2.58637 11.8623C2.43343 11.4527 1.75882 11.4527 1.60483 11.8623L0.03352 16.0525C-0.0680913 16.3238 0.0691364 16.6255 0.339401 16.7271C0.609667 16.8319 0.912405 16.6915 1.01402 16.4212L1.28114 15.7131H2.91216L3.17719 16.4212C3.25575 16.6307 3.45583 16.7606 3.66743 16.7606C3.72924 16.7606 3.79104 16.7502 3.8518 16.7271C4.12207 16.6255 4.25929 16.3238 4.15768 16.0525ZM1.67397 14.6655L2.09612 13.5384L2.51828 14.6655H1.67397Z" fill="white"/>
</g>
<defs>
<clipPath id="clip0_343_44156">
<rect width="16.7619" height="16.7619" fill="white"/>
</clipPath>
</defs>
</svg>
