<svg width="12" height="12" viewBox="0 0 12 12" fill="none" xmlns="http://www.w3.org/2000/svg">
<path d="M11.3773 8.25251L9.91566 10.3189C9.86166 10.3885 9.79206 10.4341 9.70686 10.4485C9.62526 10.4617 9.54366 10.4425 9.47406 10.3945L7.57926 9.05171V11.3737C7.57926 11.5489 7.44126 11.6893 7.26486 11.6893H4.73286C4.55646 11.6893 4.41487 11.5465 4.41487 11.3737V9.05171L2.52367 10.3945C2.38087 10.4953 2.18047 10.4617 2.08207 10.3189L0.620465 8.25251C0.517265 8.11091 0.550865 7.91171 0.693665 7.81091L3.25806 5.98931L0.693665 4.16891C0.659622 4.14477 0.630699 4.11412 0.608569 4.07874C0.586439 4.04336 0.57154 4.00394 0.564734 3.96277C0.557927 3.9216 0.559348 3.87948 0.568914 3.83886C0.57848 3.79824 0.596001 3.75992 0.620465 3.72611L2.08207 1.65971C2.18047 1.51931 2.38087 1.48331 2.52367 1.58651L4.41606 2.92691V0.607307C4.41606 0.429707 4.55887 0.289307 4.73407 0.289307H7.26726C7.44367 0.289307 7.58166 0.432107 7.58166 0.607307V2.92931L9.47646 1.58651C9.54486 1.53611 9.62646 1.51931 9.70806 1.53371C9.79446 1.54691 9.86526 1.59251 9.91806 1.65971L11.3821 3.72611C11.4805 3.87011 11.4505 4.06691 11.3089 4.16891L8.73846 5.98931L11.3065 7.81091C11.4493 7.91171 11.4781 8.11091 11.3773 8.25251Z" fill="#17F871"/>
</svg>
