<svg width="32" height="32" viewBox="0 0 32 32" fill="none" xmlns="http://www.w3.org/2000/svg">
<path d="M16.951 0C10.0759 0 4.48266 5.59325 4.48266 12.4683V14.1062L2.62141 20.2614C2.47573 20.7431 2.73635 21.2538 3.21185 21.4186L6.38398 22.5176V26.9246C6.38398 27.4424 6.80373 27.8621 7.32148 27.8621H12.088V31.0625C12.088 31.5802 12.5078 32 13.0255 32H24.4337C24.9515 32 25.3712 31.5802 25.3712 31.0625V21.6629C27.9492 19.3013 29.4192 15.975 29.4192 12.4683C29.4192 5.59325 23.826 0 16.951 0ZM10.5553 8.73662C10.5816 8.2595 10.9626 7.8785 11.4397 7.85219C11.518 7.84788 12.7521 7.78894 14.0857 8.23169C14.4806 6.19525 16.1162 4.70806 16.1949 4.6375C16.5509 4.31869 17.0897 4.31869 17.4457 4.6375C17.5245 4.70806 19.1601 6.19525 19.5549 8.23169C20.8886 7.78894 22.1227 7.84781 22.2009 7.85219C22.678 7.8785 23.059 8.2595 23.0854 8.73662C23.092 8.85675 23.2275 11.6985 21.4809 13.4452C19.7762 15.1499 17.0113 15.1796 16.8259 15.1796H16.8149C16.6299 15.1796 13.8647 15.1499 12.1599 13.4452C10.4131 11.6985 10.5487 8.85675 10.5553 8.73662Z" fill="#17F871"/>
<path d="M16.1484 9.45607C16.4134 9.72113 16.6349 10.0144 16.8203 10.3214C17.0057 10.0144 17.2272 9.72113 17.4922 9.45607C17.5787 9.36976 17.6687 9.28709 17.762 9.20826C17.7635 9.17257 17.7656 9.13695 17.7656 9.10101C17.7656 8.17394 17.2586 7.31026 16.8202 6.73669C16.3822 7.30982 15.875 8.17388 15.875 9.10101C15.875 9.13695 15.8771 9.17257 15.8786 9.20826C15.9719 9.2871 16.0619 9.36978 16.1484 9.45607ZM15.826 13.1973C15.7304 12.4466 15.4781 11.4376 14.8225 10.7819C14.1696 10.1291 13.1985 9.87644 12.4824 9.78001C12.5782 10.4949 12.8305 11.4636 13.4857 12.1188C14.1392 12.7723 15.1035 13.0657 15.826 13.1973ZM18.818 10.7819C18.1652 11.4347 17.9126 12.4464 17.8162 13.1986C18.5372 13.0678 19.4989 12.7748 20.1549 12.1188C20.8079 11.4658 21.0605 10.4948 21.1569 9.77869C20.442 9.87438 19.4733 10.1266 18.818 10.7819Z" fill="#17F871"/>
</svg>
