<svg width="32" height="32" viewBox="0 0 32 32" fill="none" xmlns="http://www.w3.org/2000/svg">
<path d="M25.9153 5H23.0303V3C23.0303 2.73478 22.9249 2.48043 22.7374 2.29289C22.5498 2.10536 22.2955 2 22.0303 2C21.7651 2 21.5107 2.10536 21.3232 2.29289C21.1356 2.48043 21.0303 2.73478 21.0303 3V5H11.0293V3C11.0293 2.73478 10.9239 2.48043 10.7364 2.29289C10.5488 2.10536 10.2945 2 10.0293 2C9.76406 2 9.5097 2.10536 9.32217 2.29289C9.13463 2.48043 9.02927 2.73478 9.02927 3V5H6.14427C4.78844 5.00159 3.4886 5.54089 2.52988 6.49961C1.57117 7.45833 1.03186 8.75817 1.03027 10.114V25.885C1.03186 27.2408 1.57117 28.5407 2.52988 29.4994C3.4886 30.4581 4.78844 30.9974 6.14427 30.999H25.9153C27.2713 30.9977 28.5714 30.4585 29.5303 29.4997C30.4892 28.541 31.0287 27.241 31.0303 25.885V10.114C31.0287 8.758 30.4892 7.458 29.5303 6.49926C28.5714 5.54051 27.2713 5.00132 25.9153 5ZM6.14427 7H9.02927V9C9.02927 9.26522 9.13463 9.51957 9.32217 9.70711C9.5097 9.89464 9.76406 10 10.0293 10C10.2945 10 10.5488 9.89464 10.7364 9.70711C10.9239 9.51957 11.0293 9.26522 11.0293 9V7H21.0303V9C21.0303 9.26522 21.1356 9.51957 21.3232 9.70711C21.5107 9.89464 21.7651 10 22.0303 10C22.2955 10 22.5498 9.89464 22.7374 9.70711C22.9249 9.51957 23.0303 9.26522 23.0303 9V7H25.9153C26.741 7.00079 27.5327 7.3291 28.1167 7.91289C28.7007 8.49667 29.0292 9.28827 29.0303 10.114V12.667H3.02927V10.114C3.03033 9.28844 3.35875 8.497 3.94251 7.91324C4.52627 7.32948 5.31771 7.00106 6.14327 7H6.14427ZM8.10727 20.431C8.37249 20.431 8.62684 20.5364 8.81438 20.7239C9.00192 20.9114 9.10727 21.1658 9.10727 21.431C9.10727 21.6962 9.00192 21.9506 8.81438 22.1381C8.62684 22.3256 8.37249 22.431 8.10727 22.431C7.84206 22.431 7.5877 22.3256 7.40017 22.1381C7.21263 21.9506 7.10727 21.6962 7.10727 21.431C7.10727 21.1658 7.21263 20.9114 7.40017 20.7239C7.5877 20.5364 7.84206 20.431 8.10727 20.431ZM7.10727 16.945C7.10727 16.6798 7.21263 16.4254 7.40017 16.2379C7.5877 16.0504 7.84206 15.945 8.10727 15.945C8.37249 15.945 8.62684 16.0504 8.81438 16.2379C9.00192 16.4254 9.10727 16.6798 9.10727 16.945C9.10727 17.2102 9.00192 17.4646 8.81438 17.6521C8.62684 17.8396 8.37249 17.945 8.10727 17.945C7.84206 17.945 7.5877 17.8396 7.40017 17.6521C7.21263 17.4646 7.10727 17.2102 7.10727 16.945ZM8.10727 25.126C8.37249 25.126 8.62684 25.2314 8.81438 25.4189C9.00192 25.6064 9.10727 25.8608 9.10727 26.126C9.10727 26.3912 9.00192 26.6456 8.81438 26.8331C8.62684 27.0206 8.37249 27.126 8.10727 27.126C7.84206 27.126 7.5877 27.0206 7.40017 26.8331C7.21263 26.6456 7.10727 26.3912 7.10727 26.126C7.10727 25.8608 7.21263 25.6064 7.40017 25.4189C7.5877 25.2314 7.84206 25.126 8.10727 25.126ZM13.2343 20.43H24.2493C24.5145 20.43 24.7688 20.5354 24.9564 20.7229C25.1439 20.9104 25.2493 21.1648 25.2493 21.43C25.2493 21.6952 25.1439 21.9496 24.9564 22.1371C24.7688 22.3246 24.5145 22.43 24.2493 22.43H13.2333C12.9681 22.43 12.7137 22.3246 12.5262 22.1371C12.3386 21.9496 12.2333 21.6952 12.2333 21.43C12.2333 21.1648 12.3386 20.9104 12.5262 20.7229C12.7137 20.5354 12.9681 20.43 13.2333 20.43H13.2343ZM12.2343 16.944C12.2343 16.6788 12.3396 16.4244 12.5272 16.2369C12.7147 16.0494 12.9691 15.944 13.2343 15.944H24.2493C24.5145 15.944 24.7688 16.0494 24.9564 16.2369C25.1439 16.4244 25.2493 16.6788 25.2493 16.944C25.2493 17.2092 25.1439 17.4636 24.9564 17.6511C24.7688 17.8386 24.5145 17.944 24.2493 17.944H13.2333C12.9681 17.944 12.7137 17.8386 12.5262 17.6511C12.3386 17.4636 12.2333 17.2092 12.2333 16.944H12.2343ZM13.2343 25.125H24.2493C24.5145 25.125 24.7688 25.2304 24.9564 25.4179C25.1439 25.6054 25.2493 25.8598 25.2493 26.125C25.2493 26.3902 25.1439 26.6446 24.9564 26.8321C24.7688 27.0196 24.5145 27.125 24.2493 27.125H13.2333C12.9681 27.125 12.7137 27.0196 12.5262 26.8321C12.3386 26.6446 12.2333 26.3902 12.2333 26.125C12.2333 25.8598 12.3386 25.6054 12.5262 25.4179C12.7137 25.2304 12.9681 25.125 13.2333 25.125H13.2343Z" fill="#17F871"/>
</svg>
