<svg width="18" height="18" viewBox="0 0 18 18" fill="none" xmlns="http://www.w3.org/2000/svg">
<path d="M14.6633 7.2373H8.28146C7.49822 7.2373 6.86328 7.87225 6.86328 8.65549V15.0373C6.86328 15.8205 7.49822 16.4555 8.28146 16.4555H14.6633C15.4465 16.4555 16.0815 15.8205 16.0815 15.0373V8.65549C16.0815 7.87225 15.4465 7.2373 14.6633 7.2373Z" stroke="#0CC72E" stroke-width="0.709091" stroke-linecap="round" stroke-linejoin="round"/>
<path d="M4.02766 11.4926H3.31857C2.94245 11.4926 2.58173 11.3432 2.31577 11.0772C2.04981 10.8113 1.90039 10.4505 1.90039 10.0744V3.6926C1.90039 3.31647 2.04981 2.95575 2.31577 2.68979C2.58173 2.42383 2.94245 2.27441 3.31857 2.27441H9.70039C10.0765 2.27441 10.4372 2.42383 10.7032 2.68979C10.9692 2.95575 11.1186 3.31647 11.1186 3.6926V4.40169" stroke="#0CC72E" stroke-width="0.709091" stroke-linecap="round" stroke-linejoin="round"/>
</svg>
