<svg width="32" height="32" viewBox="0 0 32 32" fill="none" xmlns="http://www.w3.org/2000/svg">
<g clip-path="url(#clip0_343_40031)">
<path d="M28.1866 16.0625V29.5C28.1866 30.9062 27.3054 32 26.1804 32H23.4366C22.3116 32 21.4304 30.9 21.4304 29.5V16.0625C21.4304 14.6562 22.3116 13.5625 23.4366 13.5625H26.1804C27.2991 13.5625 28.1866 14.6625 28.1866 16.0625ZM28.2304 8.18125C28.0429 8.3125 27.7991 8.31875 27.5991 8.2L25.7241 7.075C22.6366 12.1875 18.2804 17 9.86787 17C8.09287 17 6.13662 16.7875 3.97412 16.3125C3.66162 16.2437 3.46162 15.9375 3.52412 15.6188C3.58662 15.3313 3.84912 15.1375 4.14287 15.1625C4.66787 15.2063 16.8679 16.025 21.9929 4.74375L20.0741 3.8125C19.7866 3.675 19.6616 3.325 19.7991 3.0375C19.8616 2.90625 19.9679 2.80625 20.0991 2.75L26.4679 0.0437505C26.7616 -0.0812495 27.1054 0.0562505 27.2304 0.35C27.2491 0.39375 27.2616 0.4375 27.2679 0.48125L28.4741 7.6C28.5179 7.825 28.4179 8.05625 28.2304 8.18125ZM19.3804 21V29.5C19.3804 30.9062 18.4991 32 17.3741 32H14.6241C13.4991 32 12.6179 30.9 12.6179 29.5V21C12.6179 19.5938 13.4991 18.5 14.6241 18.5H17.3679C18.4991 18.4937 19.3804 19.5938 19.3804 21ZM10.7679 25.1125V29.5C10.7679 30.9 9.88662 32 8.76162 32H6.01162C4.88662 32 4.00537 30.9 4.00537 29.5V25.1125C4.00537 23.7062 4.88662 22.6125 6.01162 22.6125H8.75537C9.88662 22.6062 10.7679 23.7062 10.7679 25.1125Z" fill="#17F871"/>
</g>
<defs>
<clipPath id="clip0_343_40031">
<rect width="32" height="32" fill="white"/>
</clipPath>
</defs>
</svg>
