<svg width="32" height="32" viewBox="0 0 32 32" fill="none" xmlns="http://www.w3.org/2000/svg">
<path d="M29.2321 14.1562C29.1312 13.9126 28.9603 13.7044 28.7411 13.5579C28.5218 13.4114 28.2641 13.3332 28.0004 13.3331H23.1019L25.283 5.69952C25.3639 5.41548 25.3483 5.11262 25.2385 4.83843C25.1288 4.56423 24.9311 4.33422 24.6766 4.18447C24.422 4.03471 24.125 3.97369 23.832 4.01095C23.539 4.04822 23.2667 4.18168 23.0577 4.3904L12.3912 15.0573C12.2046 15.2437 12.0775 15.4813 12.026 15.74C11.9745 15.9986 12.0008 16.2668 12.1018 16.5104C12.2027 16.7541 12.3736 16.9624 12.5929 17.1089C12.8123 17.2554 13.0701 17.3335 13.3339 17.3334H19.3118L16.1086 24.8086C15.986 25.0935 15.9665 25.4121 16.0536 25.7097C16.1407 26.0074 16.3288 26.2653 16.5856 26.4391C16.8425 26.6129 17.1518 26.6917 17.4605 26.6619C17.7692 26.6321 18.0578 26.4956 18.2766 26.2758L28.9432 15.6093C29.1298 15.4229 29.2569 15.1853 29.3083 14.9266C29.3598 14.6679 29.3333 14.3998 29.2321 14.1562ZM12.0004 24H4.00043C3.64678 24 3.30762 24.1405 3.05755 24.3906C2.80748 24.6406 2.66699 24.9798 2.66699 25.3334C2.66699 25.6871 2.80748 26.0263 3.05755 26.2763C3.30762 26.5264 3.64678 26.6669 4.00043 26.6669H12.0004C12.3541 26.6669 12.6932 26.5264 12.9433 26.2763C13.1934 26.0263 13.3339 25.6871 13.3339 25.3334C13.3339 24.9798 13.1934 24.6406 12.9433 24.3906C12.6932 24.1405 12.3541 24 12.0004 24ZM5.33387 20H9.33387C9.68752 20 10.0267 19.8595 10.2768 19.6094C10.5268 19.3594 10.6673 19.0202 10.6673 18.6666C10.6673 18.3129 10.5268 17.9737 10.2768 17.7237C10.0267 17.4736 9.68752 17.3331 9.33387 17.3331H5.33387C4.98022 17.3331 4.64106 17.4736 4.39099 17.7237C4.14092 17.9737 4.00043 18.3129 4.00043 18.6666C4.00043 19.0202 4.14092 19.3594 4.39099 19.6094C4.64106 19.8595 4.98022 20 5.33387 20ZM8.00043 6.66656H17.3339C17.6875 6.66656 18.0266 6.52609 18.2766 6.27605C18.5267 6.02601 18.6672 5.68689 18.6672 5.33328C18.6672 4.97967 18.5267 4.64055 18.2766 4.39051C18.0266 4.14047 17.6875 4 17.3339 4H8.00043C7.6504 4.00542 7.31654 4.14828 7.07093 4.39773C6.82531 4.64718 6.68765 4.98321 6.68765 5.33328C6.68765 5.68335 6.82531 6.01938 7.07093 6.26883C7.31654 6.51828 7.6504 6.66114 8.00043 6.66656ZM6.66699 13.3334H10.667C11.0206 13.3334 11.3598 13.193 11.6099 12.9429C11.8599 12.6928 12.0004 12.3537 12.0004 12C12.0004 11.6463 11.8599 11.3072 11.6099 11.0571C11.3598 10.807 11.0206 10.6666 10.667 10.6666H6.66699C6.31334 10.6666 5.97418 10.807 5.72411 11.0571C5.47404 11.3072 5.33355 11.6463 5.33355 12C5.33355 12.3537 5.47404 12.6928 5.72411 12.9429C5.97418 13.193 6.31334 13.3334 6.66699 13.3334Z" fill="#17F871"/>
</svg>
