<svg width="12" height="8" viewBox="0 0 12 8" fill="none" xmlns="http://www.w3.org/2000/svg">
<path d="M5.65341 4.45667L6.41892 4.94542L5.65341 6.14747C5.47412 6.14747 5.29483 6.07896 5.15803 5.94216L3.86267 4.64658L1.09222 7.41703C0.956291 7.55296 0.735592 7.55296 0.59966 7.41703L0.102111 6.91926C-0.0340371 6.78333 -0.0340371 6.56263 0.102111 6.4267L3.36729 3.16109C3.64089 2.88771 4.08424 2.88771 4.35783 3.16109L5.65341 4.45667Z" fill="#429987"/>
<path d="M11.1009 0.348393L11.1009 3.88435C11.1009 4.07665 10.945 4.23274 10.7525 4.23274L10.0488 4.23274C9.85625 4.23274 9.70038 4.07665 9.70038 3.88435L9.70038 2.39084L6.14946 5.94175C6.08453 6.00692 6.00735 6.0586 5.92237 6.09383C5.8374 6.12907 5.74629 6.14716 5.6543 6.14706L5.6543 4.45626L8.71027 1.40051L7.21675 1.40051C7.02445 1.40051 6.86836 1.24441 6.86836 1.05212L6.86836 0.348393C6.86836 0.155877 7.02445 5.51836e-09 7.21675 6.29285e-09L10.7525 2.05332e-08C10.945 2.13085e-08 11.1009 0.155877 11.1009 0.348393Z" fill="#2CC9B1"/>
</svg>
