<svg width="20" height="20" viewBox="0 0 20 20" fill="none" xmlns="http://www.w3.org/2000/svg">
<path d="M14.1687 3.43728C13.6238 2.88949 12.9757 2.45507 12.2619 2.15911C11.5481 1.86314 10.7827 1.71149 10.01 1.71291H9.9925C9.21943 1.71104 8.45367 1.86247 7.73951 2.15846C7.02535 2.45444 6.37697 2.8891 5.83187 3.43728C5.28083 3.98433 4.84388 4.63534 4.54637 5.35256C4.24886 6.06978 4.09671 6.83893 4.09875 7.61541C4.09875 9.07041 4.635 10.4673 5.60938 11.546C6.21375 12.216 6.54625 13.1079 6.54625 14.0585C6.54625 14.8192 7.00562 15.4729 7.66 15.7629V16.2629C7.66066 16.7997 7.87414 17.3142 8.25362 17.6938C8.6331 18.0734 9.14762 18.2871 9.68437 18.2879H10.3169C10.8536 18.2871 11.3681 18.0734 11.7476 17.6938C12.1271 17.3142 12.3406 16.7997 12.3412 16.2629V15.7629C12.6719 15.6171 12.9532 15.3785 13.1509 15.0759C13.3486 14.7734 13.4543 14.4199 13.455 14.0585C13.455 13.1079 13.7875 12.2167 14.3919 11.546C15.3653 10.4684 15.9037 9.06759 15.9025 7.61541C15.9043 6.83891 15.752 6.06979 15.4544 5.35259C15.1567 4.63539 14.7198 3.98438 14.1687 3.43728ZM7.245 6.50041C7.19764 6.64176 7.09622 6.75861 6.96292 6.82537C6.82963 6.89214 6.67532 6.90339 6.53375 6.85666C6.46359 6.83335 6.39871 6.79644 6.34282 6.74804C6.28693 6.69963 6.24114 6.64069 6.20805 6.57457C6.17496 6.50846 6.15523 6.43647 6.14999 6.36272C6.14475 6.28897 6.1541 6.21491 6.1775 6.14478C6.37609 5.55684 6.71745 5.02737 7.17101 4.60381C7.62456 4.18026 8.17612 3.87586 8.77625 3.71791C8.92074 3.68192 9.07358 3.70423 9.20176 3.78001C9.32993 3.85579 9.42314 3.97896 9.46125 4.12291C9.49809 4.26744 9.47615 4.42068 9.40024 4.54906C9.32433 4.67745 9.20064 4.77053 9.05625 4.80791C8.6378 4.91797 8.25324 5.13023 7.9371 5.42565C7.62096 5.72106 7.38314 6.09037 7.245 6.50041ZM11.215 16.2629C11.2148 16.5013 11.1201 16.7298 10.9516 16.8985C10.7831 17.0671 10.5546 17.162 10.3162 17.1623H9.68375C9.44538 17.162 9.21688 17.0671 9.04838 16.8985C8.87989 16.7298 8.78516 16.5013 8.785 16.2629V15.9242H11.2156L11.215 16.2629ZM2.57625 3.82853C2.51527 3.78684 2.44667 3.75756 2.37437 3.74238C2.30208 3.7272 2.2275 3.7264 2.15489 3.74004C2.08229 3.75368 2.01308 3.78148 1.95123 3.82187C1.88937 3.86225 1.83607 3.91443 1.79438 3.97541C1.71017 4.09857 1.67834 4.25013 1.70588 4.39676C1.73343 4.54339 1.81809 4.67308 1.94125 4.75728L2.785 5.33416C2.84591 5.37615 2.91453 5.40566 2.98691 5.42098C3.05929 5.4363 3.13399 5.43713 3.20669 5.42341C3.27939 5.4097 3.34865 5.38172 3.41047 5.34108C3.4723 5.30044 3.52545 5.24796 3.56687 5.18666C3.65093 5.06345 3.68267 4.91193 3.65513 4.76535C3.6276 4.61876 3.54303 4.48909 3.42 4.40478L2.57625 3.82853ZM2.82188 7.72478C2.82188 7.5756 2.76261 7.43252 2.65712 7.32703C2.55163 7.22155 2.40856 7.16228 2.25937 7.16228H1.25C1.10082 7.16228 0.957742 7.22155 0.852252 7.32703C0.746763 7.43252 0.6875 7.5756 0.6875 7.72478C0.6875 7.87397 0.746763 8.01704 0.852252 8.12253C0.957742 8.22802 1.10082 8.28728 1.25 8.28728H2.25875C2.33267 8.28736 2.40588 8.27287 2.4742 8.24464C2.54252 8.21641 2.6046 8.17499 2.6569 8.12275C2.7092 8.07051 2.75069 8.00847 2.779 7.94019C2.8073 7.8719 2.82188 7.7987 2.82188 7.72478ZM2.785 10.116L1.94125 10.6923C1.81801 10.7765 1.73326 10.9062 1.70566 11.0529C1.67806 11.1996 1.70986 11.3512 1.79406 11.4745C1.87827 11.5977 2.00798 11.6825 2.15467 11.7101C2.30136 11.7377 2.45301 11.7059 2.57625 11.6217L3.42 11.0454C3.54324 10.9612 3.62799 10.8315 3.65559 10.6848C3.68319 10.5381 3.65139 10.3865 3.56719 10.2632C3.48298 10.14 3.35327 10.0552 3.20658 10.0276C3.05989 10 2.90824 10.0318 2.785 10.116ZM16.8981 5.43228C17.0112 5.43233 17.1217 5.39812 17.215 5.33416L18.0588 4.75728C18.1819 4.67308 18.2666 4.54339 18.2941 4.39676C18.3217 4.25013 18.2898 4.09857 18.2056 3.97541C18.1214 3.85225 17.9917 3.76758 17.8451 3.74004C17.6985 3.71249 17.5469 3.74433 17.4237 3.82853L16.58 4.40541C16.4807 4.47325 16.4058 4.57112 16.3663 4.68465C16.3267 4.79818 16.3245 4.9214 16.3601 5.03624C16.3957 5.15108 16.4671 5.2515 16.564 5.32278C16.6608 5.39405 16.7779 5.43243 16.8981 5.43228ZM18.75 7.16228H17.7412C17.5921 7.16228 17.449 7.22155 17.3435 7.32703C17.238 7.43252 17.1787 7.5756 17.1787 7.72478C17.1787 7.87397 17.238 8.01704 17.3435 8.12253C17.449 8.22802 17.5921 8.28728 17.7412 8.28728H18.75C18.8992 8.28728 19.0423 8.22802 19.1477 8.12253C19.2532 8.01704 19.3125 7.87397 19.3125 7.72478C19.3125 7.5756 19.2532 7.43252 19.1477 7.32703C19.0423 7.22155 18.8992 7.16228 18.75 7.16228ZM17.215 10.116C17.0918 10.0318 16.9403 9.99999 16.7936 10.0275C16.647 10.0551 16.5173 10.1397 16.4331 10.2629C16.3489 10.3861 16.3171 10.5376 16.3446 10.6843C16.3722 10.8309 16.4568 10.9606 16.58 11.0448L17.4237 11.621C17.4847 11.663 17.5533 11.6925 17.6257 11.7079C17.698 11.7232 17.7727 11.724 17.8454 11.7103C17.9181 11.6966 17.9874 11.6686 18.0492 11.628C18.111 11.5873 18.1642 11.5348 18.2056 11.4735C18.2473 11.4126 18.2766 11.344 18.2918 11.2717C18.307 11.1994 18.3078 11.1248 18.2941 11.0522C18.2805 10.9796 18.2527 10.9104 18.2123 10.8485C18.1719 10.7866 18.1197 10.7333 18.0588 10.6917L17.215 10.116Z" fill="white"/>
</svg>
