<svg width="20" height="20" viewBox="0 0 20 20" fill="none" xmlns="http://www.w3.org/2000/svg">
<g clip-path="url(#clip0_343_44033)">
<path d="M6.9384 18.1618H14.6625V20.0009H6.9384V18.1618ZM14.6625 16.9899V12.7764L19.099 7.91492L16.8251 5.83984L14.1096 8.81555C13.8634 10.4205 12.4732 11.6537 10.8004 11.6537C9.12766 11.6537 7.73754 10.4206 7.49137 8.81559L4.77586 5.83988L2.50195 7.91492L6.9384 12.7764V16.99L14.6625 16.9899Z" fill="white"/>
<path d="M10.8008 10.4809C12.0006 10.4809 12.9768 9.50481 12.9768 8.30496C12.9768 7.10512 12.0006 6.12898 10.8008 6.12898C9.60094 6.12898 8.62484 7.10512 8.62484 8.30496C8.62484 9.50481 9.60098 10.4809 10.8008 10.4809ZM14.1235 4.81055C14.6223 3.75427 15.4725 2.90405 16.5287 2.40527C15.4725 1.90648 14.6223 1.05627 14.1235 0C13.6247 1.05628 12.7745 1.90649 11.7182 2.40527C12.7745 2.90406 13.6247 3.75428 14.1235 4.81055ZM3.30664 13.5029C2.80787 14.5591 1.95765 15.4094 0.901367 15.9081C1.95764 16.4069 2.80785 17.2571 3.30664 18.3134C3.80543 17.2571 4.65564 16.4069 5.71191 15.9081C4.65564 15.4093 3.80543 14.5591 3.30664 13.5029Z" fill="white"/>
</g>
<defs>
<clipPath id="clip0_343_44033">
<rect width="20" height="20" fill="white"/>
</clipPath>
</defs>
</svg>
