<svg width="10" height="10" viewBox="0 0 10 10" fill="none" xmlns="http://www.w3.org/2000/svg">
<g clip-path="url(#clip0_421_2974)">
<path d="M7.02368 6.21422L9.45225 3.78564L7.02368 6.21422ZM7.02368 3.78564L9.45225 6.21422L7.02368 3.78564Z" fill="white"/>
<path d="M7.02368 6.21422L9.45225 3.78564M7.02368 3.78564L9.45225 6.21422" stroke="white" stroke-width="0.761905" stroke-linecap="round"/>
<path d="M4.99996 8.86092C4.78949 8.86092 4.57901 8.77187 4.41711 8.61806L2.40139 6.61854H0.952346C0.507108 6.61854 0.142822 6.25425 0.142822 5.80901V4.18997C0.142822 3.74473 0.507108 3.38044 0.952346 3.38044H2.40139L4.41711 1.38092C4.53072 1.2656 4.67629 1.18699 4.83502 1.15525C4.99376 1.1235 5.15836 1.14007 5.30758 1.20282C5.60711 1.32425 5.80949 1.61568 5.80949 1.94758V8.0433C5.80825 8.25836 5.72281 8.46439 5.57149 8.61722C5.42017 8.77005 5.21501 8.85753 4.99996 8.86092Z" fill="white"/>
</g>
<defs>
<clipPath id="clip0_421_2974">
<rect width="9.71429" height="9.71429" fill="white" transform="translate(0.142822 0.142822)"/>
</clipPath>
</defs>
</svg>
