<svg width="20" height="20" viewBox="0 0 20 20" fill="none" xmlns="http://www.w3.org/2000/svg">
<path d="M15.9607 6.66827L16.5809 5.63447L15.3755 5.61427L14.1701 5.59387L14.4833 6.15807L10.9847 8.10027L10.1921 6.67247L4.79492 9.66847L5.33892 10.6485L9.75612 8.19627L10.5487 9.62407L15.0273 7.13787L15.3403 7.70207L15.9607 6.66827ZM4.87492 12.2105H6.40772V16.3695H4.87492V12.2105ZM8.23932 11.3349H9.77232V16.3695H8.23932V11.3349ZM11.6037 10.4593H13.1367V16.3695H11.6037V10.4593ZM14.9681 9.58367H16.5011V16.3695H14.9681V9.58367Z" fill="white"/>
<path d="M18 18.0001H2V2.00012H3.2308V16.7693H18V18.0001Z" fill="white"/>
</svg>
