<svg width="41" height="27" viewBox="0 0 41 27" fill="none" xmlns="http://www.w3.org/2000/svg">
<path d="M30.0879 1.50098L35.0117 1.77441L36.0527 1.83301L35.3555 2.6084C34.7 3.33769 34.0917 4.02155 33.5303 4.65918C33.065 5.20279 32.6467 5.70045 32.2754 6.15234C31.89 6.6213 31.5022 7.04618 31.1123 7.42578C30.4806 8.04078 29.9944 8.64552 29.6465 9.23828L29.6377 9.25293L29.6279 9.26758C29.2777 9.77906 28.9693 10.3342 28.7031 10.9336C28.6334 11.1792 28.5968 11.4236 28.5918 11.668C29.7282 10.7424 31.0177 10.2657 32.4512 10.2656C33.143 10.2656 33.8675 10.3393 34.623 10.4844L34.9492 10.5508L34.9736 10.5566L34.9971 10.5645C36.4984 11.0517 37.71 11.9324 38.6162 13.2002L38.7812 13.4238C39.5821 14.5505 39.9863 15.8146 39.9863 17.2031C40.0796 18.6789 39.6694 20.1358 38.791 21.5645C37.9827 22.9415 36.6857 24.0951 34.9404 25.0391L34.9336 25.043L34.9277 25.0459C32.1401 26.4496 29.6098 26.8634 27.3799 26.1729L27.3701 26.1699L27.3604 26.166C25.219 25.4079 23.6529 24.2494 22.7334 22.6582V22.6572C22.2269 21.8606 21.8376 20.8008 21.5518 19.502L21.5459 19.4668C21.3546 18.1632 21.2588 16.8151 21.2588 15.4229V15.4062L21.2598 15.3906C21.355 13.9077 21.5458 12.4694 21.832 11.0762C22.1218 9.66583 22.561 8.46558 23.1621 7.49023L23.1729 7.47266L23.1846 7.45703C23.6652 6.80194 24.2393 6.10413 24.9043 5.36426C25.4843 4.70585 26.1575 4.0515 26.9219 3.40039L26.9326 3.39062L26.9443 3.38184C27.8117 2.72509 28.7724 2.11764 29.8252 1.55859L29.9482 1.49316L30.0879 1.50098ZM12.3135 1.51465L17.2383 2.74805L18.1797 2.9834L17.4404 3.61328C16.6854 4.25642 15.9734 4.81154 15.3047 5.27734C14.7462 5.73032 14.2332 6.13976 13.7656 6.50391C13.5312 6.68644 13.2969 6.86922 13.0625 7.05176C12.8325 7.23092 12.6021 7.4097 12.3721 7.58887L11.9111 7.9873C11.4681 8.38546 11.0791 8.78138 10.7432 9.17383L10.7285 9.19043L10.7119 9.20605C10.2789 9.62759 9.88378 10.1395 9.52832 10.7451L9.51953 10.7598L9.50977 10.7744C9.38372 10.9585 9.29249 11.1464 9.23242 11.3389C9.75625 11.0677 10.2897 10.8926 10.833 10.8223C11.7132 10.633 12.5203 10.5807 13.2461 10.6816H13.2451C13.9342 10.766 14.6212 10.9233 15.3057 11.1523L15.5996 11.2549L15.6367 11.2686L15.6709 11.2871C17.0595 12.0596 18.0708 13.1322 18.6826 14.501C19.3902 15.7828 19.6421 17.1684 19.4404 18.6406C19.2379 20.1192 18.5804 21.4855 17.4941 22.7354C16.4808 24.0091 14.9868 24.9624 13.0566 25.6201L13.0459 25.624C10.066 26.5598 7.52201 26.5422 5.48438 25.4512L5.46875 25.4414C3.52675 24.307 2.17126 22.9095 1.46191 21.2324L1.45508 21.2168L1.44922 21.2002C1.1437 20.3079 1 19.1976 1 17.8877C1.00002 16.5727 1.14509 15.215 1.43262 13.8154C1.71886 12.4221 2.10038 11.0738 2.57812 9.77148C3.06337 8.44883 3.7011 7.34096 4.50098 6.46289C5.08983 5.7941 5.7747 5.17674 6.55176 4.60938L6.56055 4.60254C7.22241 4.1423 7.97768 3.63697 8.8252 3.08691L8.84473 3.0752C9.80537 2.51406 10.859 2.00155 12.0039 1.53711L12.1553 1.47559L12.3135 1.51465Z" fill="#00FF66" fill-opacity="0.56" stroke="black"/>
</svg>
