<svg width="21" height="20" viewBox="0 0 21 20" fill="none" xmlns="http://www.w3.org/2000/svg">
<path d="M11.4671 18.4917L10.0838 15.2917C11.4171 14.8083 12.6421 14.1667 13.7755 13.4L11.4588 18.4917M5.20879 10.4167L2.00879 9.04168L7.10046 6.72501C6.31863 7.87199 5.68315 9.11215 5.20879 10.4167ZM18.5505 1.95834C18.5505 1.95834 20.3171 6.09168 15.5921 10.8333C13.7588 12.6417 11.7755 13.75 9.98379 14.45C9.36712 14.6833 8.67546 14.5333 8.21712 14.0667L6.44212 12.2917C5.97546 11.825 5.82546 11.1417 6.05046 10.5167C6.75046 8.75001 7.85879 6.74168 9.66712 4.90834C14.4088 0.180011 18.5505 1.95834 18.5505 1.95834ZM5.70879 18.3333H4.53379L7.94212 14.9167C8.19212 15.0917 8.46712 15.2167 8.75046 15.2917L5.70879 18.3333ZM2.16712 18.3333V17.1583L6.14212 13.175L7.33379 14.3583L3.34212 18.3333H2.16712ZM2.16712 15.9667V14.7917L5.20879 11.75C5.28379 12.0417 5.40879 12.3167 5.58379 12.5583L2.16712 15.9667ZM13.8338 5.00001C13.3918 5.00001 12.9678 5.17561 12.6553 5.48817C12.3427 5.80073 12.1671 6.22465 12.1671 6.66668C12.1671 7.1087 12.3427 7.53263 12.6553 7.84519C12.9678 8.15775 13.3918 8.33334 13.8338 8.33334C14.7588 8.33334 15.5005 7.59168 15.5005 6.66668C15.5005 6.22465 15.3249 5.80073 15.0123 5.48817C14.6997 5.17561 14.2758 5.00001 13.8338 5.00001Z" fill="white"/>
</svg>
