<svg width="65" height="65" viewBox="0 0 65 65" fill="none" xmlns="http://www.w3.org/2000/svg">
<path fill-rule="evenodd" clip-rule="evenodd" d="M0.948384 37.1502C0.71353 35.589 0.591797 33.9906 0.591797 32.3638C0.591797 14.7409 14.878 0.454712 32.5009 0.454712C44.959 0.454712 55.7496 7.59413 61.0045 18.0047H49.6108C45.5137 13.1275 39.3693 10.0274 32.5009 10.0274C21.8078 10.0274 12.8696 17.5415 10.6786 27.5774H64.0534C64.2882 29.1386 64.41 30.737 64.41 32.3638C64.41 49.9867 50.1237 64.2729 32.5009 64.2729C20.0218 64.2729 9.21581 57.1093 3.97084 46.67L15.2016 46.4947C18.333 50.3236 22.7103 53.0935 27.7148 54.1862V37.1502H0.948384ZM37.2875 54.1862C45.7814 52.3317 52.4688 45.6441 54.3232 37.1502H37.2875V54.1862Z" fill="#21CCE7"/>
</svg>
