<svg width="34" height="18" viewBox="0 0 34 18" fill="none" xmlns="http://www.w3.org/2000/svg">
<path d="M33.5449 17.2726C33.5449 12.8243 31.7778 8.55811 28.6324 5.41267C25.487 2.26722 21.2208 0.500122 16.7725 0.500122C12.3241 0.500122 8.05799 2.26722 4.91254 5.41266C1.7671 8.55811 6.94437e-07 12.8243 2.27568e-08 17.2726H4.19312C4.19312 13.9363 5.51844 10.7367 7.87753 8.37765C10.2366 6.01856 13.4362 4.69324 16.7725 4.69324C20.1087 4.69324 23.3083 6.01856 25.6674 8.37765C28.0265 10.7367 29.3518 13.9363 29.3518 17.2726H33.5449Z" fill="#059669"/>
<path d="M8.64926 2.59849C6.02114 4.05335 3.83198 6.18733 2.31051 8.77746C0.789036 11.3676 -0.00889947 14.3188 7.4873e-05 17.3227L4.19317 17.3102C4.18644 15.0572 4.7849 12.8438 5.926 10.9012C7.0671 8.95865 8.70897 7.35816 10.6801 6.26702L8.64926 2.59849Z" fill="#A7F3D0"/>
<path d="M25.1587 2.74721C22.6153 1.27878 19.731 0.503926 16.7941 0.500136C13.8573 0.496347 10.9709 1.26376 8.42375 2.72561L10.5109 6.36236C12.4213 5.26597 14.5861 4.69041 16.7887 4.69325C18.9913 4.69609 21.1546 5.27724 23.0621 6.37855L25.1587 2.74721Z" fill="#34D399"/>
<path d="M28.7961 10.1505L16.5295 17.1585L15.7708 15.6207L28.7961 10.1505Z" fill="white"/>
<path d="M16.841 17.0878C16.3795 17.3155 15.8207 17.126 15.5931 16.6645C15.3654 16.203 15.5549 15.6443 16.0164 15.4166C16.4779 15.1889 17.0366 15.3784 17.2643 15.8399C17.492 16.3014 17.3025 16.8601 16.841 17.0878Z" fill="white"/>
</svg>
