<svg width="24" height="25" viewBox="0 0 24 25" fill="none" xmlns="http://www.w3.org/2000/svg">
<path d="M20.25 5.74609C17.587 5.74609 14.992 4.80309 12.45 2.89609C12.3202 2.79873 12.1623 2.74609 12 2.74609C11.8377 2.74609 11.6798 2.79873 11.55 2.89609C9.008 4.80309 6.413 5.74609 3.75 5.74609C3.55109 5.74609 3.36032 5.82511 3.21967 5.96576C3.07902 6.10642 3 6.29718 3 6.49609V11.7461C3 16.7471 5.958 20.4221 11.725 22.6941C11.9017 22.7637 12.0983 22.7637 12.275 22.6941C18.042 20.4221 21 16.7461 21 11.7461V6.49609C21 6.29718 20.921 6.10642 20.7803 5.96576C20.6397 5.82511 20.4489 5.74609 20.25 5.74609ZM16.757 10.0491L10.757 15.5491C10.6145 15.6796 10.4271 15.75 10.2339 15.7458C10.0407 15.7415 9.8566 15.6628 9.72 15.5261L7.22 13.0261C7.14631 12.9574 7.08721 12.8746 7.04622 12.7826C7.00523 12.6906 6.98319 12.5913 6.98141 12.4906C6.97963 12.3899 6.99816 12.2899 7.03588 12.1965C7.0736 12.1031 7.12974 12.0183 7.20096 11.9471C7.27218 11.8758 7.35701 11.8197 7.4504 11.782C7.54379 11.7443 7.64382 11.7257 7.74452 11.7275C7.84523 11.7293 7.94454 11.7513 8.03654 11.7923C8.12854 11.8333 8.21134 11.8924 8.28 11.9661L10.273 13.9581L15.743 8.94309C15.8897 8.80863 16.0837 8.73793 16.2825 8.74656C16.4813 8.75519 16.6685 8.84243 16.803 8.98909C16.9375 9.13576 17.0082 9.32983 16.9995 9.52862C16.9909 9.72741 16.9037 9.91463 16.757 10.0491Z" fill="#17F871"/>
</svg>
