<svg width="18" height="18" viewBox="0 0 18 18" fill="none" xmlns="http://www.w3.org/2000/svg">
<path d="M9 2.25006L9.2955 1.56006C9.20213 1.52003 9.10159 1.49939 9 1.49939C8.89841 1.49939 8.79787 1.52003 8.7045 1.56006L9 2.25006ZM9 15.7501L8.628 16.4011C8.7413 16.4658 8.86952 16.4998 9 16.4998C9.13048 16.4998 9.2587 16.4658 9.372 16.4011L9 15.7501ZM8.7045 1.56081L3.909 3.61506L4.5 4.99506L9.2955 2.94006L8.7045 1.56081ZM3 4.99431V10.1393H4.5V4.99431H3ZM5.64525 14.6971L8.628 16.4011L9.372 15.0991L6.38925 13.3943L5.64525 14.6971ZM9.372 16.4011L12.3547 14.6971L11.6107 13.3943L8.628 15.0991L9.372 16.4011ZM15 10.1386V4.99506H13.5V10.1401L15 10.1386ZM14.091 3.61581L9.2955 1.56081L8.7045 2.93931L13.5 4.99506L14.091 3.61581ZM15 4.99506C15 4.70155 14.9138 4.4145 14.7523 4.16947C14.5907 3.92444 14.3608 3.73145 14.091 3.61581L13.5 4.99506H15ZM12.3547 14.6971C13.1585 14.2378 13.8265 13.5749 14.291 12.7742C14.7556 11.9735 15.0002 11.0643 15 10.1386H13.5C13.4999 10.7997 13.3251 11.449 12.9931 12.0208C12.6612 12.5925 12.1841 13.0664 11.61 13.3943L12.3547 14.6971ZM3 10.1386C2.99996 11.0641 3.24461 11.9733 3.70916 12.7738C4.1737 13.5743 4.84163 14.2378 5.64525 14.6971L6.38925 13.3943C5.81555 13.0664 5.33867 12.5928 5.00691 12.0213C4.67514 11.4498 4.50027 10.8008 4.5 10.1401L3 10.1386ZM3.909 3.61506C3.63912 3.73075 3.40913 3.92386 3.24754 4.16904C3.08596 4.41421 2.99989 4.70142 3 4.99506H4.5L3.909 3.61506Z" fill="#17F871"/>
<path d="M11.25 7.5L8.25 10.5L6.75 9" stroke="#17F871" stroke-width="2" stroke-linecap="round" stroke-linejoin="round"/>
</svg>
