<svg width="18" height="18" viewBox="0 0 18 18" fill="none" xmlns="http://www.w3.org/2000/svg">
<path d="M6.86474 4.056C7.81499 2.352 8.28974 1.5 8.99999 1.5C9.71024 1.5 10.185 2.352 11.1352 4.056L11.3812 4.497C11.6512 4.9815 11.7862 5.22375 11.9962 5.3835C12.2062 5.54325 12.4687 5.6025 12.9937 5.721L13.4707 5.829C15.3157 6.24675 16.2375 6.45525 16.4572 7.161C16.6762 7.866 16.0477 8.60175 14.79 10.0725L14.4645 10.4528C14.1075 10.8705 13.9282 11.0797 13.848 11.3377C13.7677 11.5965 13.7947 11.8755 13.8487 12.4327L13.8982 12.9405C14.088 14.9032 14.1832 15.8843 13.6087 16.32C13.0342 16.7558 12.1702 16.3582 10.4437 15.5632L9.99599 15.3577C9.50549 15.1312 9.26024 15.0187 8.99999 15.0187C8.73974 15.0187 8.49449 15.1312 8.00399 15.3577L7.55699 15.5632C5.82974 16.3582 4.96574 16.7557 4.39199 16.3207C3.81674 15.8842 3.91199 14.9032 4.10174 12.9405L4.15124 12.4335C4.20524 11.8755 4.23224 11.5965 4.15124 11.3385C4.07174 11.0798 3.89249 10.8705 3.53549 10.4535L3.20999 10.0725C1.95224 8.6025 1.32374 7.86675 1.54274 7.161C1.76174 6.45525 2.68499 6.246 4.52999 5.829L5.00699 5.721C5.53124 5.6025 5.79299 5.54325 6.00374 5.3835C6.21449 5.22375 6.34874 4.9815 6.61874 4.497L6.86474 4.056Z" fill="#17F871"/>
</svg>
